<svg width="150" height="97" viewBox="0 0 150 97" fill="none" xmlns="http://www.w3.org/2000/svg">
<rect x="54.5" y="2.5" width="41" height="41" rx="4.5" fill="white" stroke="black" stroke-width="5"/>
<rect x="54.5" y="53.5" width="41" height="41" rx="4.5" fill="white" stroke="black" stroke-width="5"/>
<rect x="2.5" y="53.5" width="41" height="41" rx="4.5" fill="white" stroke="black" stroke-width="5"/>
<rect x="106.5" y="53.5" width="41" height="41" rx="4.5" fill="white" stroke="black" stroke-width="5"/>
<path d="M87.085 15.1533L82.5439 33H78.2349L75.8179 23.625C75.769 23.446 75.7039 23.1733 75.6226 22.8071C75.5412 22.4409 75.4557 22.0422 75.3662 21.6108C75.2767 21.1714 75.1953 20.7604 75.1221 20.3779C75.057 19.9873 75.0122 19.6781 74.9878 19.4502C74.9634 19.6781 74.9146 19.9832 74.8413 20.3657C74.7762 20.7482 74.6989 21.1551 74.6094 21.5864C74.528 22.0177 74.4466 22.4206 74.3652 22.7949C74.2839 23.1693 74.2188 23.4541 74.1699 23.6494L71.7651 33H67.4683L62.915 15.1533H66.6382L68.9209 24.8945C68.986 25.1875 69.0592 25.5374 69.1406 25.9443C69.2301 26.3512 69.3156 26.7785 69.397 27.2261C69.4865 27.6655 69.5638 28.0928 69.6289 28.5078C69.7021 28.9147 69.755 29.2687 69.7876 29.5698C69.8283 29.2606 69.8812 28.9025 69.9463 28.4956C70.0114 28.0806 70.0806 27.6615 70.1538 27.2383C70.2352 26.807 70.3166 26.4082 70.3979 26.042C70.4793 25.6758 70.5526 25.3787 70.6177 25.1509L73.2178 15.1533H76.7944L79.3945 25.1509C79.4515 25.3706 79.5166 25.6676 79.5898 26.042C79.6712 26.4082 79.7526 26.807 79.834 27.2383C79.9154 27.6696 79.9886 28.0928 80.0537 28.5078C80.127 28.9147 80.1799 29.2687 80.2124 29.5698C80.2694 29.1629 80.3467 28.6706 80.4443 28.0928C80.5501 27.5068 80.66 26.925 80.7739 26.3472C80.896 25.7694 81.0018 25.2852 81.0913 24.8945L83.3618 15.1533H87.085Z" fill="black"/>
<path d="M80.896 79.0439C80.896 80.1019 80.6396 81.0215 80.127 81.8027C79.6143 82.584 78.8656 83.1862 77.8809 83.6094C76.9043 84.0326 75.7161 84.2441 74.3164 84.2441C73.6979 84.2441 73.0916 84.2035 72.4976 84.1221C71.9116 84.0407 71.346 83.9227 70.8008 83.7681C70.2637 83.6053 69.751 83.4059 69.2627 83.1699V79.6543C70.109 80.0286 70.988 80.3664 71.8994 80.6675C72.8109 80.9686 73.7142 81.1191 74.6094 81.1191C75.2279 81.1191 75.7243 81.0378 76.0986 80.875C76.4811 80.7122 76.7578 80.4884 76.9287 80.2036C77.0996 79.9188 77.1851 79.5933 77.1851 79.2271C77.1851 78.7795 77.0345 78.397 76.7334 78.0796C76.4323 77.7622 76.0173 77.4652 75.4883 77.1885C74.9674 76.9118 74.3774 76.6147 73.7183 76.2974C73.3032 76.1021 72.8516 75.866 72.3633 75.5894C71.875 75.3045 71.4111 74.9587 70.9717 74.5518C70.5322 74.1449 70.1701 73.6525 69.8853 73.0747C69.6086 72.4888 69.4702 71.7889 69.4702 70.9751C69.4702 69.909 69.7144 68.9976 70.2026 68.2407C70.6909 67.4839 71.3867 66.9061 72.29 66.5073C73.2015 66.1004 74.2757 65.897 75.5127 65.897C76.4404 65.897 77.3234 66.0068 78.1616 66.2266C79.008 66.4382 79.891 66.7474 80.8105 67.1543L79.5898 70.0962C78.7679 69.7625 78.0314 69.5062 77.3804 69.3271C76.7293 69.14 76.0661 69.0464 75.3906 69.0464C74.9186 69.0464 74.5158 69.1237 74.1821 69.2783C73.8485 69.4248 73.5962 69.6364 73.4253 69.9131C73.2544 70.1816 73.1689 70.495 73.1689 70.853C73.1689 71.2762 73.291 71.6343 73.5352 71.9272C73.7874 72.2121 74.1618 72.4888 74.6582 72.7573C75.1628 73.0259 75.7894 73.3392 76.5381 73.6973C77.4495 74.1286 78.2267 74.5802 78.8696 75.0522C79.5207 75.5161 80.0212 76.0654 80.3711 76.7002C80.721 77.3268 80.896 78.1081 80.896 79.0439Z" fill="black"/>
<path d="M27.541 84L26.2471 79.752H19.7407L18.4468 84H14.3696L20.6685 66.0801H25.2949L31.6182 84H27.541ZM25.3438 76.5781L24.0498 72.4277C23.9684 72.151 23.8586 71.797 23.7202 71.3657C23.59 70.9263 23.4557 70.4827 23.3174 70.0352C23.1872 69.5794 23.0814 69.1847 23 68.8511C22.9186 69.1847 22.8047 69.5998 22.6582 70.0962C22.5199 70.5845 22.3856 71.0483 22.2554 71.4878C22.1252 71.9272 22.0316 72.2406 21.9746 72.4277L20.6929 76.5781H25.3438Z" fill="black"/>
<path d="M134.8 74.9058C134.8 76.9159 134.414 78.5964 133.641 79.9473C132.876 81.29 131.765 82.3032 130.308 82.9868C128.851 83.6623 127.098 84 125.047 84H119.993V66.1533H125.596C127.468 66.1533 129.091 66.487 130.467 67.1543C131.842 67.8135 132.908 68.7941 133.665 70.0962C134.422 71.3901 134.8 72.9933 134.8 74.9058ZM130.87 75.0034C130.87 73.6851 130.674 72.6027 130.284 71.7563C129.901 70.9019 129.332 70.2712 128.575 69.8643C127.826 69.4574 126.898 69.2539 125.792 69.2539H123.777V80.875H125.401C127.248 80.875 128.619 80.3826 129.515 79.3979C130.418 78.4132 130.87 76.9484 130.87 75.0034Z" fill="black"/>
</svg>
